HIERARCHY
ROOT hip
{
	OFFSET 0.00000 0.00000 0.00000
	CHANNELS 6 Xposition Yposition Zposition Zrotation Yrotation Xrotation 
	JOINT rightuplegdummy
	{
		OFFSET 0 0 0
		CHANNELS 3 Zrotation Yrotation Xrotation
		JOINT rightupleg
		{
			OFFSET -3.52197 -3.41223 0.04002
			CHANNELS 3 Zrotation Yrotation Xrotation
			JOINT rightleg
			{
				OFFSET 0.00006 -17.42390 1.60435
				CHANNELS 3 Zrotation Yrotation Xrotation
				JOINT rightfoot
				{
					OFFSET 0.06153 -16.50078 -1.63901
					CHANNELS 3 Zrotation Yrotation Xrotation
					JOINT righttoes
					{
						OFFSET 0.00298 -1.73825 3.34613
						CHANNELS 3 Zrotation Yrotation Xrotation
						End Site
						{
							OFFSET 0.00480 -0.05416 3.85043
						}
					}
				}
			}
		}
	}
	JOINT spinedummy
	{
		OFFSET 0 0 0
		CHANNELS 3 Zrotation Yrotation Xrotation
		JOINT spine
		{
			OFFSET 0.00000 4.68130 0.00000
			CHANNELS 3 Zrotation Yrotation Xrotation
			JOINT spine1
			{
				OFFSET -0.00000 10.10138 0.05002
				CHANNELS 3 Zrotation Yrotation Xrotation
				JOINT headdummy
				{
					OFFSET 0 0 0
					CHANNELS 3 Zrotation Yrotation Xrotation
					JOINT head
					{
						OFFSET -0.00000 3.43865 0.00438
						CHANNELS 3 Zrotation Yrotation Xrotation
						End Site
						{
							OFFSET -0.11417 5.02924 0.98962
						}
					}
				}
				JOINT leftshoulder1dummy
				{
					OFFSET 0 0 0
					CHANNELS 3 Zrotation Yrotation Xrotation
					JOINT leftshoulder1
					{
						OFFSET 3.53937 -0.14262 -0.08662
						CHANNELS 3 Zrotation Yrotation Xrotation
						JOINT leftarm
						{
							OFFSET 4.04833 -0.00133 0.12681
							CHANNELS 3 Zrotation Yrotation Xrotation
							JOINT leftforearm
							{
								OFFSET 10.33880 -0.01036 -0.55515
								CHANNELS 3 Zrotation Yrotation Xrotation
								JOINT lefthand
								{
									OFFSET 8.69677 0.07543 0.40060
									CHANNELS 3 Zrotation Yrotation Xrotation
									End Site
									{
										OFFSET 5.28377 -0.21905 0.59205
									}
								}
							}
						}
					}
				}
				JOINT rightshoulderdummy
				{
					OFFSET 0 0 0
					CHANNELS 3 Zrotation Yrotation Xrotation
					JOINT rightshoulder
					{
						OFFSET -3.53937 -0.14262 -0.08660
						CHANNELS 3 Zrotation Yrotation Xrotation
						JOINT rightarm
						{
							OFFSET -4.04833 -0.00133 0.12683
							CHANNELS 3 Zrotation Yrotation Xrotation
							JOINT rightforearm
							{
								OFFSET -10.37987 -0.01039 -0.55511
								CHANNELS 3 Zrotation Yrotation Xrotation
								JOINT righthand
								{
									OFFSET -8.67398 0.07538 0.40058
									CHANNELS 3 Zrotation Yrotation Xrotation
									End Site
									{
										OFFSET -5.24810 -0.21916 0.59204
									}
								}
							}
						}
					}
				}
			}
		}
	}
	JOINT leftuplegdummy
	{
		OFFSET 0 0 0
		CHANNELS 3 Zrotation Yrotation Xrotation
		JOINT leftupleg
		{
			OFFSET 3.52197 -3.41223 0.04002
			CHANNELS 3 Zrotation Yrotation Xrotation
			JOINT leftleg
			{
				OFFSET -0.00012 -17.42399 1.60337
				CHANNELS 3 Zrotation Yrotation Xrotation
				JOINT leftfoot
				{
					OFFSET -0.09972 -16.50070 -1.63802
					CHANNELS 3 Zrotation Yrotation Xrotation
					JOINT lefttoes
					{
						OFFSET -0.01575 -1.73823 3.34611
						CHANNELS 3 Zrotation Yrotation Xrotation
						End Site
						{
							OFFSET 0.03150 -0.01868 3.85031
						}
					}
				}
			}
		}
	}
}
MOTION
Frames: 15
Frame Time: 0.033333
2.9902 38.5986 12.0037 145.0840 20.7412 123.5430 0.0000 -0.0000 0.0000 -29.4007 0.3767 10.2487 9.7799 10.4861 38.5010 -13.0163 1.5417 2.0281 0.0000 0.0000 -0.0000 0.0000 -0.0000 0.0000 2.1807 1.8517 24.6203 -24.9653 12.9327 27.3307 -0.0000 -0.0000 -0.0000 -1.3396 12.8993 20.4046 -0.0000 -0.0000 -0.0000 -24.2825 -5.5329 2.7558 -5.3185 -31.7891 -40.7913 -6.5116 -83.2223 -0.3627 33.5722 2.4587 -0.8709 -0.0000 -0.0000 -0.0000 6.1143 2.9532 0.9004 -38.4237 61.7021 -78.3250 -1.6822 68.7782 22.1736 -8.7956 5.8910 -0.8072 0.0000 -0.0000 0.0000 2.6284 28.2395 -64.0966 2.3956 6.4317 18.1722 -12.9292 0.2381 -9.8968 0.0000 -0.0000 -0.0000
2.6906 38.3544 10.4345 140.5520 19.7436 116.9320 0.0000 -0.0000 0.0000 -38.7291 -4.5960 10.8416 8.6951 7.5772 44.4490 -14.3352 1.4753 0.3555 0.0000 0.0000 -0.0000 0.0000 -0.0000 0.0000 -1.7646 1.8037 30.1845 -25.3560 12.8821 27.7484 -0.0000 -0.0000 -0.0000 -2.3138 13.7161 22.0815 -0.0000 -0.0000 -0.0000 -24.8187 -4.9977 2.6348 0.4502 -25.1865 -49.3517 -167.7660 -85.5047 158.0697 36.0411 2.8347 -0.8176 -0.0000 -0.0000 -0.0000 2.1289 1.4952 0.5149 -44.1423 55.5063 -90.8925 -3.3658 81.2618 18.2882 -9.5929 2.7614 -0.6489 0.0000 -0.0000 0.0000 2.4755 33.1951 -83.4993 1.7944 2.5342 21.4155 -12.0602 0.7767 -4.1144 0.0000 -0.0000 -0.0000
2.4411 37.8815 8.7176 136.9260 19.4353 111.4570 0.0000 -0.0000 0.0000 -44.0863 -1.8207 10.7833 7.6275 5.5063 49.8221 -13.1721 0.8927 -3.5151 0.0000 0.0000 -0.0000 0.0000 -0.0000 0.0000 -6.2090 1.8276 35.9210 -25.1609 12.1024 25.4413 -0.0000 -0.0000 -0.0000 -3.6187 16.1370 24.7731 -0.0000 -0.0000 -0.0000 -28.3340 -4.5326 2.7637 2.8311 -11.8963 -54.8233 -176.3009 -73.6022 162.6738 38.6441 3.2740 -0.7296 -0.0000 -0.0000 -0.0000 3.3787 1.4468 0.5655 -41.8483 48.8680 -93.3189 -174.6751 86.7261 -158.7896 -11.1459 0.9380 -0.5990 0.0000 -0.0000 0.0000 -1.4611 36.9723 -102.8374 0.5278 3.2409 20.6064 -11.5862 1.4028 2.5831 0.0000 -0.0000 -0.0000
2.3552 37.6948 7.2151 133.1650 20.0312 107.6480 0.0000 -0.0000 0.0000 -45.1699 4.9396 9.6571 4.3758 2.9207 52.9267 -10.5072 0.4755 -5.9030 0.0000 0.0000 -0.0000 0.0000 -0.0000 0.0000 -8.7550 3.2543 37.6478 -24.7240 12.5632 23.5872 -0.0000 -0.0000 -0.0000 -4.3104 18.1935 27.7542 -0.0000 -0.0000 -0.0000 -30.4504 -4.4391 2.8966 -0.5679 -1.2518 -54.5871 -177.2927 -65.7944 161.1063 39.9988 3.3531 -0.7275 -0.0000 -0.0000 -0.0000 7.8851 2.2235 0.8847 -37.0129 44.5800 -90.8100 -179.0794 77.3107 -166.6645 -11.7710 0.0208 -0.5471 0.0000 -0.0000 0.0000 10.2640 44.0256 -102.3041 -3.0270 16.9296 13.8240 -16.0293 3.4026 12.8988 0.0000 -0.0000 -0.0000
2.4879 37.7741 6.5459 129.3920 21.5180 105.9010 0.0000 -0.0000 0.0000 -44.6164 5.0519 6.9748 -3.9575 -2.0953 53.9717 -9.3375 0.4154 -6.0053 0.0000 0.0000 -0.0000 0.0000 -0.0000 0.0000 -7.6239 4.3211 33.5622 -25.8547 15.0684 24.4488 -0.0000 -0.0000 -0.0000 -4.5964 19.6101 31.9353 -0.0000 -0.0000 -0.0000 -31.1144 -4.2897 2.8933 -5.8186 4.2243 -47.2313 -177.4779 -63.8779 162.0192 38.0080 3.7069 -0.5733 -0.0000 -0.0000 -0.0000 12.5937 3.3628 1.3501 -33.4037 47.5212 -84.8720 -179.6619 72.5823 -168.8214 -11.5908 -0.6227 -0.4793 0.0000 -0.0000 0.0000 16.5804 47.0573 -93.6096 -3.9488 15.0123 11.2545 -18.6446 6.0599 25.4287 0.0000 -0.0000 -0.0000
2.9137 38.2477 6.2221 126.2870 23.9101 105.0820 0.0000 -0.0000 0.0000 -43.7619 0.8094 7.8694 -10.8607 -7.7610 48.6869 -10.0886 0.2169 -8.5104 0.0000 0.0000 -0.0000 0.0000 -0.0000 0.0000 -2.3482 4.7240 25.6507 -28.0361 17.9214 26.6988 -0.0000 -0.0000 -0.0000 -4.9087 21.9136 36.9685 -0.0000 -0.0000 -0.0000 -32.0992 -3.9098 2.8245 -9.4167 8.0080 -37.3559 -177.3959 -65.9826 163.5501 33.5218 4.3079 -0.3301 -0.0000 -0.0000 -0.0000 15.5317 4.5063 1.7884 -22.5034 57.2891 -67.4687 -179.9831 71.5862 -170.7279 -9.2769 -0.0861 -0.4182 0.0000 -0.0000 0.0000 25.8079 46.0697 -72.8899 -2.8367 6.5870 8.2434 -16.2754 6.7271 34.8117 0.0000 -0.0000 -0.0000
3.4956 38.8626 5.9003 125.0790 25.9716 105.0930 0.0000 -0.0000 0.0000 -43.0257 -0.7492 13.2378 -10.2239 -10.5280 38.2672 -10.7684 -0.1114 -12.0526 0.0000 0.0000 -0.0000 0.0000 -0.0000 0.0000 3.4791 4.9811 17.2268 -28.9670 18.9575 27.4965 -0.0000 -0.0000 -0.0000 -4.6496 25.2214 40.7940 -0.0000 -0.0000 -0.0000 -31.0734 -3.3873 2.5560 -15.2196 14.3063 -30.3511 -177.4655 -66.5501 164.6395 28.6851 4.5772 -0.2183 -0.0000 -0.0000 -0.0000 17.4426 5.2159 2.0995 7.3510 62.6174 -30.1420 179.9889 72.2743 -170.8819 -3.4069 -0.2917 -0.1512 0.0000 -0.0000 0.0000 33.9224 38.3303 -47.5677 -0.9778 6.9830 1.4937 -16.0018 7.1355 38.0011 0.0000 -0.0000 -0.0000
4.0406 39.4420 5.4748 123.8550 26.7980 105.5750 0.0000 -0.0000 0.0000 -43.6301 -0.5804 16.9691 -7.2916 -10.0939 29.6216 -10.3868 -0.1558 -12.5405 0.0000 0.0000 -0.0000 0.0000 -0.0000 0.0000 6.2749 5.3427 9.5468 -28.5952 18.1955 25.5605 -0.0000 -0.0000 -0.0000 -4.1864 26.8169 41.7079 -0.0000 -0.0000 -0.0000 -27.8082 -2.8423 2.1504 -23.3989 23.4144 -28.2317 -177.8256 -63.7774 166.2054 23.5567 4.0251 -0.2945 -0.0000 -0.0000 -0.0000 18.5644 5.1643 2.1768 34.6957 54.5891 3.3926 -179.9148 71.6596 -170.1123 -0.0029 -1.4861 -0.0093 0.0000 -0.0000 0.0000 32.3028 27.0016 -29.0693 -0.2587 7.9845 -0.1060 -16.6353 7.5656 38.8030 0.0000 -0.0000 -0.0000
4.4586 39.9976 4.5374 120.9130 28.0610 105.2010 0.0000 -0.0000 0.0000 -45.9225 -2.0060 16.9986 -5.0719 -8.1647 25.2692 -9.9614 -0.0483 -11.4190 0.0000 0.0000 -0.0000 0.0000 -0.0000 0.0000 9.2160 5.8085 2.9223 -27.5249 16.9215 22.1337 -0.0000 -0.0000 -0.0000 -4.3457 26.1452 40.1547 -0.0000 -0.0000 -0.0000 -25.3252 -2.5527 1.9073 -28.1947 29.7021 -29.3329 -178.1463 -61.3404 167.9178 19.3314 3.2944 -0.3667 -0.0000 -0.0000 -0.0000 18.2569 4.6787 2.0322 44.3027 38.9978 16.9100 179.8328 67.3896 -171.9493 -2.1636 -1.5719 -0.0871 0.0000 -0.0000 0.0000 24.3252 16.6981 -15.3110 -0.9256 3.6985 2.9202 -15.3450 6.8990 38.4314 0.0000 -0.0000 -0.0000
4.7899 40.2096 3.8450 118.0290 31.2762 104.3430 0.0000 -0.0000 0.0000 -46.1496 -4.5099 15.6979 -3.2581 -5.4727 23.2945 -10.4053 -0.0781 -11.7358 0.0000 0.0000 -0.0000 0.0000 -0.0000 0.0000 13.2221 5.7573 -1.6511 -26.2840 15.6800 19.3090 -0.0000 -0.0000 -0.0000 -3.6314 26.7836 37.9671 -0.0000 -0.0000 -0.0000 -23.6240 -2.3648 1.7533 -28.6048 28.4062 -30.2751 -178.1790 -61.8898 168.7360 17.5682 3.3679 -0.3245 -0.0000 -0.0000 -0.0000 17.2272 4.3751 1.8816 46.3383 22.8686 21.4624 179.7161 60.7854 -173.7174 -3.0958 -1.3635 -0.1167 0.0000 -0.0000 0.0000 14.5893 9.0883 -3.4688 -1.6099 0.3498 4.9647 -15.4479 6.6705 36.6770 0.0000 -0.0000 -0.0000
4.9788 39.9627 3.5651 116.0770 35.4155 104.0330 0.0000 -0.0000 0.0000 -44.9720 -8.7842 12.8755 -0.2552 -0.0568 25.0557 -11.5895 -0.3473 -14.2456 0.0000 0.0000 -0.0000 0.0000 -0.0000 0.0000 15.0409 5.0578 -5.3367 -23.8414 13.4736 18.7787 -0.0000 -0.0000 -0.0000 -2.5381 30.3121 34.7387 -0.0000 -0.0000 -0.0000 -22.9631 -2.3947 1.7251 -26.4614 22.7706 -31.0327 -177.8142 -64.1875 166.2910 17.4940 3.5126 -0.3020 -0.0000 -0.0000 -0.0000 17.1911 4.3334 1.8690 45.8194 13.5363 23.6362 179.8780 55.6385 -172.5003 -0.2316 -1.5562 -0.0211 0.0000 -0.0000 0.0000 6.1475 5.5281 5.0430 -3.1811 -1.8441 5.6910 -15.6420 6.6190 35.7782 0.0000 -0.0000 -0.0000
4.8982 39.4199 3.4870 116.3850 39.2260 105.5950 0.0000 -0.0000 0.0000 -41.9165 -12.6377 8.7990 1.8791 2.9228 30.5962 -12.9441 -0.7198 -17.1314 0.0000 0.0000 -0.0000 0.0000 -0.0000 0.0000 13.5556 3.5081 -8.7989 -19.0370 9.9861 21.0462 -0.0000 -0.0000 -0.0000 -3.6830 34.1911 29.7161 -0.0000 -0.0000 -0.0000 -24.1671 -2.5377 1.8359 -23.4296 16.8954 -31.6813 -177.2955 -66.3351 162.6578 18.4088 3.4119 -0.3320 -0.0000 -0.0000 -0.0000 19.2889 4.3676 2.0302 43.4108 12.9415 23.6573 179.9148 53.9692 -172.1413 1.5398 -1.6089 0.0359 0.0000 -0.0000 0.0000 0.1891 2.8910 9.5499 -4.1194 1.5660 4.4874 -15.3853 6.4145 35.1885 0.0000 -0.0000 -0.0000
4.6915 39.0865 3.7303 118.8960 42.0882 108.5650 0.0000 -0.0000 0.0000 -37.3129 -14.1729 6.7559 0.9189 1.4469 32.8415 -13.7237 -0.9048 -18.2916 0.0000 0.0000 -0.0000 0.0000 -0.0000 0.0000 10.1928 2.0948 -9.8212 -13.5295 6.6805 22.8617 -0.0000 -0.0000 -0.0000 -5.6281 36.4673 25.2482 -0.0000 -0.0000 -0.0000 -25.4241 -2.6577 1.9464 -22.1401 11.2812 -30.5268 -177.3303 -67.6319 164.2960 18.9530 3.3929 -0.3431 -0.0000 -0.0000 -0.0000 22.4188 4.5851 2.3236 41.8536 15.3025 22.4265 179.8733 55.5737 -172.5069 1.0293 -1.6272 0.0188 0.0000 -0.0000 0.0000 -3.1589 1.1158 11.7782 -3.9043 7.7329 3.2888 -14.3149 5.5657 32.4050 0.0000 -0.0000 -0.0000
4.4825 39.0889 4.2241 121.7930 44.1859 112.0920 0.0000 -0.0000 0.0000 -32.6905 -15.4122 6.4662 -0.2935 -0.0780 30.4599 -14.5637 -0.9159 -17.9745 0.0000 0.0000 -0.0000 0.0000 -0.0000 0.0000 8.5953 2.1082 -8.2092 -11.4057 6.0322 22.1682 -0.0000 -0.0000 -0.0000 -6.6328 37.9803 21.7165 -0.0000 -0.0000 -0.0000 -25.9591 -2.9005 2.0559 -21.5812 7.6722 -28.5029 -177.9329 -67.3887 169.8754 17.0819 3.7284 -0.2658 -0.0000 -0.0000 -0.0000 24.4997 4.9147 2.5840 43.9156 18.0115 22.4660 -179.9466 58.8180 -170.1734 0.1212 -1.4035 -0.0078 0.0000 -0.0000 0.0000 -3.8353 1.3875 11.7331 -3.4435 10.5957 4.1484 -11.7854 4.1682 29.0727 0.0000 -0.0000 -0.0000
4.2781 39.3844 4.9008 125.4600 45.5423 117.3100 0.0000 -0.0000 0.0000 -27.5272 -15.9174 6.2836 -1.3553 -1.8623 25.6781 -15.5893 -0.5989 -15.3024 0.0000 0.0000 -0.0000 0.0000 -0.0000 0.0000 9.4523 3.0961 -6.1431 -13.2404 7.8364 20.7704 -0.0000 -0.0000 -0.0000 -8.0833 38.1158 16.0808 -0.0000 -0.0000 -0.0000 -25.6375 -2.9893 2.0643 -20.9896 6.9640 -27.3170 -178.3660 -65.0954 172.7485 14.9654 4.1302 -0.1865 -0.0000 -0.0000 -0.0000 24.9386 5.1521 2.6929 46.6260 22.0668 23.5207 -179.7829 60.9881 -168.4738 -1.4604 -0.9746 -0.0635 0.0000 -0.0000 0.0000 -2.4692 3.2327 8.6571 -2.5052 9.7705 6.4401 -10.7476 3.6872 28.1475 0.0000 -0.0000 -0.0000
